<svg width="17" height="17" viewBox="0 0 17 17" fill="none" xmlns="http://www.w3.org/2000/svg">
<path d="M3.88049 1.72437C4.44952 1.15534 5.01855 0.586304 5.60483 2.98642e-05C6.22577 0.595308 6.22577 0.595308 6.41673 0.780072C7.40536 1.71726 8.60107 2.27648 9.95815 2.38268C10.0419 2.39216 10.0419 2.39216 10.1274 2.40183C11.4742 2.53367 12.8618 2.06233 13.9173 1.25095C14.1467 1.05109 14.3673 0.842854 14.5874 0.63288C14.886 0.349732 14.886 0.349732 15.1906 0.0608646C15.7669 0.637164 16.3432 1.21346 16.9369 1.80723C16.6576 2.09944 16.6576 2.09944 16.3726 2.39757C15.3641 3.46935 14.7084 4.622 14.6093 6.13066C14.6037 6.18644 14.5981 6.24222 14.5923 6.29969C14.4798 7.61859 14.9427 9.01454 15.7498 10.0629C15.9594 10.302 16.1774 10.5319 16.3973 10.7617C16.5954 10.97 16.7936 11.1783 16.9978 11.393C16.4287 11.962 15.8597 12.531 15.2734 13.1173C13.6638 11.5447 13.6638 11.5447 13.276 10.8736C13.2561 10.8395 13.2361 10.8055 13.2155 10.7704C12.4861 9.51215 12.191 8.20728 12.0518 6.77548C8.65103 10.1489 5.25021 13.5222 1.74635 16.9978C1.17005 16.4215 0.593749 15.8452 -1.45205e-05 15.2515C3.37335 11.8506 6.74672 8.44983 10.2223 4.94596C9.8949 4.91661 9.56749 4.88727 9.23016 4.85703C7.65556 4.55643 6.09765 3.96641 4.94847 2.80036C4.92105 2.77286 4.89364 2.74537 4.86539 2.71704C4.7647 2.61592 4.66437 2.51444 4.564 2.413C4.33844 2.18575 4.11288 1.9585 3.88049 1.72437Z" fill="white"/>
</svg>
