<svg width="18" height="16" viewBox="0 0 18 16" fill="none" xmlns="http://www.w3.org/2000/svg">
<path d="M1 6.99921L-1.64575e-07 6.99921L1.64575e-07 8.99921L1 8.99921L1 6.99921ZM16.0921 8.9992L17.0921 8.9992L17.0921 6.9992L16.0921 6.9992L16.0921 8.9992ZM1 8.99921L16.0921 8.9992L16.0921 6.9992L1 6.99921L1 8.99921Z" fill="#2E3556"/>
<path d="M11.675 1.67431L11.675 0.674314L9.67505 0.674314L9.67505 1.67431L11.675 1.67431ZM17 8.99927L18 8.99927L18 6.99927L17 6.99927L17 8.99927ZM10.675 1.67431C9.67505 1.67431 9.67505 1.67487 9.67505 1.67544C9.67505 1.67563 9.67505 1.67621 9.67505 1.6766C9.67505 1.6774 9.67506 1.67822 9.67506 1.67908C9.67507 1.68079 9.67508 1.68263 9.6751 1.68458C9.67513 1.6885 9.67519 1.6929 9.67527 1.69778C9.67545 1.70755 9.67574 1.71925 9.67624 1.73283C9.67722 1.75997 9.67897 1.79464 9.68208 1.83639C9.68829 1.91987 9.6999 2.03178 9.72149 2.16857C9.7647 2.44222 9.84792 2.81555 10.0078 3.25978C10.3291 4.15227 10.954 5.31359 12.1573 6.51697L13.5716 5.10275C12.5855 4.11672 12.1157 3.21027 11.8896 2.58234C11.7759 2.26636 11.7222 2.01631 11.697 1.85665C11.6844 1.77678 11.6789 1.71954 11.6766 1.68804C11.6754 1.6723 11.675 1.66301 11.6749 1.66058C11.6749 1.65937 11.6749 1.65987 11.675 1.66214C11.675 1.66328 11.675 1.66486 11.675 1.66688C11.675 1.6679 11.675 1.66902 11.675 1.67026C11.675 1.67088 11.675 1.67153 11.675 1.6722C11.675 1.67254 11.675 1.67307 11.675 1.67324C11.675 1.67377 11.675 1.67431 10.675 1.67431ZM12.1573 6.51697C13.3607 7.72034 14.522 8.34518 15.4145 8.66648C15.8588 8.8264 16.2321 8.90961 16.5057 8.95282C16.6425 8.97442 16.7544 8.98603 16.8379 8.99224C16.8797 8.99534 16.9143 8.9971 16.9415 8.99808C16.9551 8.99857 16.9668 8.99887 16.9765 8.99904C16.9814 8.99913 16.9858 8.99918 16.9897 8.99922C16.9917 8.99924 16.9935 8.99925 16.9952 8.99926C16.9961 8.99926 16.9969 8.99926 16.9977 8.99926C16.9981 8.99927 16.9987 8.99927 16.9989 8.99927C16.9994 8.99927 17 8.99927 17 7.99927C17 6.99927 17.0005 6.99927 17.0011 6.99927C17.0012 6.99927 17.0018 6.99927 17.0021 6.99927C17.0028 6.99927 17.0034 6.99927 17.0041 6.99928C17.0053 6.99928 17.0064 6.99929 17.0074 6.9993C17.0095 6.99932 17.011 6.99934 17.0122 6.99936C17.0144 6.9994 17.0149 6.99943 17.0137 6.99939C17.0113 6.9993 17.002 6.99892 16.9863 6.99775C16.9548 6.9954 16.8975 6.98991 16.8177 6.97729C16.658 6.95208 16.408 6.89846 16.092 6.7847C15.464 6.55865 14.5576 6.08879 13.5716 5.10275L12.1573 6.51697Z" fill="#2E3556"/>
<path d="M11.675 14.8108L11.675 15.8108L9.67505 15.8108L9.67505 14.8108L11.675 14.8108ZM17 6.99927L18 6.99927L18 8.99927L17 8.99927L17 6.99927ZM10.675 14.8108C9.67505 14.8108 9.67505 14.8102 9.67505 14.8097C9.67505 14.8095 9.67505 14.809 9.67505 14.8086C9.67505 14.8079 9.67506 14.8071 9.67506 14.8063C9.67507 14.8047 9.67508 14.8029 9.67509 14.801C9.67512 14.7972 9.67517 14.7929 9.67525 14.7881C9.67541 14.7785 9.67569 14.7668 9.67615 14.7531C9.67707 14.7257 9.67873 14.6902 9.6817 14.6472C9.68765 14.5611 9.69884 14.4446 9.71984 14.3014C9.76183 14.0149 9.84312 13.6213 10.0003 13.1511C10.3158 12.2073 10.9331 10.9674 12.1317 9.67664L13.5972 11.0375C12.6064 12.1046 12.129 13.0915 11.8971 13.7851C11.7807 14.1336 11.7251 14.4113 11.6987 14.5915C11.6855 14.6816 11.6796 14.7472 11.6769 14.785C11.6756 14.8039 11.6752 14.8157 11.675 14.8202C11.6749 14.8224 11.675 14.8228 11.675 14.8212C11.675 14.8204 11.675 14.8192 11.675 14.8174C11.675 14.8166 11.675 14.8156 11.675 14.8145C11.675 14.8139 11.675 14.8133 11.675 14.8127C11.675 14.8124 11.675 14.8119 11.675 14.8118C11.675 14.8113 11.675 14.8108 10.675 14.8108ZM12.1317 9.67664C13.3309 8.38515 14.4923 7.71033 15.3918 7.36161C15.8392 7.18815 16.2163 7.09749 16.4941 7.05026C16.6329 7.02665 16.7468 7.01391 16.8323 7.00706C16.875 7.00364 16.9106 7.00169 16.9387 7.0006C16.9528 7.00005 16.9649 6.99972 16.9752 6.99952C16.9803 6.99942 16.9849 6.99936 16.9891 6.99932C16.9911 6.9993 16.9931 6.99929 16.9949 6.99928C16.9958 6.99928 16.9967 6.99927 16.9975 6.99927C16.998 6.99927 16.9986 6.99927 16.9988 6.99927C16.9994 6.99927 17 6.99927 17 7.99927C17 8.99927 17.0006 8.99927 17.0012 8.99927C17.0013 8.99927 17.0019 8.99927 17.0023 8.99926C17.003 8.99926 17.0037 8.99926 17.0044 8.99926C17.0057 8.99925 17.007 8.99924 17.0081 8.99923C17.0104 8.99921 17.0122 8.99918 17.0135 8.99915C17.0163 8.9991 17.0172 8.99906 17.0165 8.99909C17.015 8.99914 17.0067 8.9995 16.9919 9.00068C16.9624 9.00304 16.9072 9.00872 16.8293 9.02196C16.6738 9.0484 16.4275 9.10511 16.1147 9.22638C15.4938 9.46711 14.5874 9.9712 13.5972 11.0375L12.1317 9.67664Z" fill="#2E3556"/>
</svg>
