<svg width="12" height="11" viewBox="0 0 12 11" fill="none" xmlns="http://www.w3.org/2000/svg">
<path d="M3.71468 0.978389C4.12794 0.655516 4.5412 0.332643 4.96698 -1.37323e-05C5.30491 0.413314 5.30491 0.413314 5.40868 0.541494C5.94771 1.19291 6.653 1.61925 7.5026 1.77042C7.55478 1.78159 7.55478 1.78159 7.60801 1.79299C8.44872 1.95967 9.37131 1.74915 10.1152 1.30393C10.279 1.19236 10.4381 1.07498 10.597 0.956464C10.8124 0.796763 10.8124 0.796763 11.0322 0.633835C11.3436 1.03244 11.655 1.43105 11.9759 1.84173C11.7718 2.00834 11.7718 2.00834 11.5636 2.17831C10.8253 2.79038 10.3029 3.47528 10.1 4.41888C10.0913 4.45365 10.0825 4.48842 10.0735 4.52424C9.87969 5.34754 10.0431 6.2551 10.4569 6.96525C10.5674 7.12878 10.6841 7.28706 10.8019 7.44536C10.9081 7.58882 11.0142 7.73228 11.1236 7.88009C10.7103 8.20297 10.2971 8.52584 9.87129 8.8585C8.99805 7.76847 8.99805 7.76847 8.8148 7.32187C8.80533 7.2992 8.79585 7.27652 8.78608 7.25315C8.44106 6.41574 8.37543 5.57595 8.42034 4.66593C5.95306 6.5783 3.48577 8.49067 0.943719 10.461C0.632293 10.0624 0.320868 9.66378 4.41821e-06 9.2531C2.45246 7.32174 4.90492 5.39039 7.43169 3.40051C7.22706 3.36169 7.02244 3.32288 6.81161 3.28289C5.84231 2.99582 4.91049 2.52759 4.29106 1.72212C4.27625 1.70311 4.26144 1.68409 4.24619 1.6645C4.19181 1.59459 4.1377 1.52447 4.08356 1.45438C3.96183 1.2973 3.8401 1.14022 3.71468 0.978389Z" fill="url(#paint0_linear_1042_612)"/>
<defs>
<linearGradient id="paint0_linear_1042_612" x1="2.90963" y1="1.60736" x2="9.06624" y2="9.48747" gradientUnits="userSpaceOnUse">
<stop stop-color="#FBD406"/>
<stop offset="1" stop-color="#F37121"/>
</linearGradient>
</defs>
</svg>
